<svg width="512" height="512" viewBox="0 0 512 512" fill="none" xmlns="http://www.w3.org/2000/svg" xmlns:xlink="http://www.w3.org/1999/xlink" class=""><rect id="«r9»" width="512" height="512" x="0" y="0" rx="128" fill="url(#«ra»)" stroke="#FFFFFF" stroke-width="0" stroke-opacity="100%" paint-order="stroke"></rect><clipPath id="clip"><use xlink:href="#«r9»"></use></clipPath><defs><radialGradient id="«ra»" cx="50%" cy="50%" r="100%" fx="50%" fy="100%" gradientUnits="objectBoundingBox"><stop stop-color="#3E3E3F"></stop><stop offset="1" stop-color="#666666"></stop></radialGradient><radialGradient id="«rb»" cx="0" cy="0" r="1" gradientUnits="userSpaceOnUse" gradientTransform="translate(256) rotate(90) scale(512)"><stop stop-color="white"></stop><stop offset="1" stop-color="white" stop-opacity="0"></stop></radialGradient></defs><svg xmlns="http://www.w3.org/2000/svg" fill="none" viewBox="0 0 16 16" width="352" height="352" x="80" y="80" alignment-baseline="middle" style="color: rgb(252, 252, 244);"><path stroke="currentColor" stroke-linecap="round" stroke-linejoin="round" stroke-width="1.5" d="M8.795 1.75h-1.59a.25.25 0 0 0-.245.201l-.39 1.951a.25.25 0 0 1-.374.166L4.517 3.063a.25.25 0 0 0-.3.033L3.14 4.116a.25.25 0 0 0-.047.303l.99 1.782a.25.25 0 0 1-.17.366l-1.963.393a.25.25 0 0 0-.201.245v1.569a.25.25 0 0 0 .225.249l1.914.19a.25.25 0 0 1 .199.361L3.08 11.59a.25.25 0 0 0 .046.288l.99.99a.25.25 0 0 0 .298.041l1.78-.989a.25.25 0 0 1 .368.174l.358 1.952a.25.25 0 0 0 .246.205h1.666a.25.25 0 0 0 .246-.205l.358-1.952a.25.25 0 0 1 .368-.174l1.78.99a.25.25 0 0 0 .298-.042l.99-.99a.25.25 0 0 0 .046-.288l-1.007-2.015a.25.25 0 0 1 .199-.36l1.914-.191a.25.25 0 0 0 .225-.25V7.206a.25.25 0 0 0-.201-.245l-1.963-.393a.25.25 0 0 1-.17-.366l.992-1.786a.25.25 0 0 0-.041-.298l-.984-.984a.25.25 0 0 0-.298-.041L9.8 4.084a.25.25 0 0 1-.366-.17L9.04 1.951a.25.25 0 0 0-.245-.201Z"></path><path stroke="currentColor" stroke-linecap="round" stroke-linejoin="round" stroke-width="1.5" d="M9.25 8a1.25 1.25 0 1 1-2.5 0 1.25 1.25 0 0 1 2.5 0Z"></path></svg></svg>